<svg id="Слой_1" data-name="Слой 1" xmlns="http://www.w3.org/2000/svg" viewBox="0 0 1023.17 1023.17"><defs><style>.cls-1{fill:#fff;opacity:0;}.cls-2{fill:#587983;}.cls-3{fill:#9db3b4;}</style></defs><rect class="cls-1" width="1023.17" height="1023.17"/><path class="cls-2" d="M96.16,503.66c-4.15,0-7.07-2-8.38-6l-47.6-137.8c-1.74-4.92.76-8.29,6-8.29h3.07c4.15,0,7,1.86,8.27,6L98.57,479.3,136,357.68c1.19-4.15,3.92-6.1,8.17-6.1h2.29c4.25,0,7,2.06,8.17,6.1L192.31,479.3l41.27-121.73c1.31-4.14,4.11-6,8.27-6h3.06c5.23,0,7.74,3.37,6,8.28L203.09,497.67c-1.3,4.14-4.22,6-8.37,6H191c-4.25,0-7-2.07-8.17-6.1l-37.45-121.4-37.24,121.4c-1.19,4.15-3.92,6.1-8.17,6.1Z" transform="translate(-0.33)"/><path class="cls-2" d="M323.32,506c-36.95,0-61.06-24.82-61.06-62.47,0-37,24.44-62.48,59.92-62.48,34.92,0,57.22,23.25,57.91,58.25.11,4.8-2.62,7.3-7.31,7.3h-94c.45,28,17.5,44.89,44.75,44.89,16.55,0,27.18-5.51,35.64-15.75,3-2.92,5.42-5,9.46-3.84l1.94.63c4.92,1.5,6,4.33,3.37,8.36-10.71,16.35-27.45,25.1-50.65,25.1ZM364,432.76c-1.39-23-17-37.78-41.62-37.78-23.51,0-40,13.93-43,37.78H364Z" transform="translate(-0.33)"/><path class="cls-2" d="M404.45,496.36V351.51c0-4.68,2.61-7.29,7.3-7.29h2.05c4.68,0,7.3,2.61,7.3,7.29V496.36c0,4.69-2.62,7.3-7.3,7.3h-2.05C407.06,503.66,404.45,501.05,404.45,496.36Z" transform="translate(-0.33)"/><path class="cls-2" d="M449.67,496.36V351.51c0-4.68,2.62-7.29,7.3-7.29h2c4.69,0,7.3,2.61,7.3,7.29V496.36c0,4.69-2.61,7.3-7.3,7.3h-2C452.29,503.66,449.67,501.05,449.67,496.36Z" transform="translate(-0.33)"/><path class="cls-2" d="M552.52,381.34c34,0,50.15,19.82,50.15,57.89v57.13c0,4.68-2.62,7.3-7.3,7.3h-1.94c-4.68,0-7.3-2.62-7.3-7.3V440.25c0-29.71-11.65-44.06-37.56-44.06-26.22,0-37.13,17.46-37.13,47.67v52.5c0,4.68-2.62,7.3-7.3,7.3H502.2c-4.68,0-7.3-2.62-7.3-7.3V390.64c0-4.69,2.62-7.3,7.3-7.3h1.94c4.68,0,7.3,2.61,7.3,7.3V409.2c5.34-15.87,19.26-27.87,41.09-27.87Z" transform="translate(-0.33)"/><path class="cls-2" d="M685.12,506c-37,0-61.06-24.82-61.06-62.47,0-37,24.43-62.48,59.91-62.48,34.92,0,57.22,23.25,57.91,58.25.11,4.8-2.62,7.3-7.3,7.3h-94c.45,28,17.49,44.89,44.74,44.89,16.55,0,27.19-5.51,35.64-15.75,3-2.92,5.43-5,9.46-3.84l1.94.63c4.93,1.5,6,4.33,3.38,8.36C725.05,497.22,708.3,506,685.11,506Zm40.69-73.22c-1.39-23-17-37.78-41.62-37.78-23.51,0-40,13.93-43,37.78h84.59Z" transform="translate(-0.33)"/><path class="cls-2" d="M761.75,482.7c-2.89-3.9-1.56-7.74,3.18-9.35l1.62-.53c3.35-1.24,5.83-1,9.69,2.76,8.89,10.26,22.8,15.46,38,15.46,21.09,0,34-8.13,34-21.41,0-31.67-83-8.92-83-54.83,0-20.68,20.7-33.56,47.33-33.56,17.34,0,35.32,7.18,45.51,18.62,3.33,3.65,2.22,7.55-2.31,9.33l-1.52.63c-3.92,1.5-6.16.19-9.8-2.39a48.17,48.17,0,0,0-31.68-11.91c-18.76,0-31.21,7-31.21,18.68,0,31.5,83.34,8.1,83.34,55.08,0,21.85-20.66,36.48-50.65,36.48C792.64,505.76,772,496.75,761.75,482.7Z" transform="translate(-0.33)"/><path class="cls-2" d="M881,482.7c-2.9-3.9-1.57-7.74,3.18-9.35l1.62-.53c3.34-1.24,5.82-1,9.68,2.76,8.89,10.26,22.81,15.46,38,15.46,21.09,0,34-8.13,34-21.41,0-31.67-83-8.92-83-54.83,0-20.68,20.7-33.56,47.33-33.56,17.34,0,35.32,7.18,45.51,18.62,3.34,3.65,2.23,7.55-2.31,9.33l-1.51.63c-3.93,1.5-6.17.19-9.8-2.39a48.19,48.19,0,0,0-31.68-11.91c-18.76,0-31.22,7-31.22,18.68,0,31.5,83.34,8.1,83.34,55.08,0,21.85-20.66,36.48-50.65,36.48C911.9,505.76,891.21,496.75,881,482.7Z" transform="translate(-0.33)"/><path class="cls-3" d="M309.85,616.05c0-43.33,29.5-62.47,59.63-62.47s59.92,19.14,59.92,62.47c0,43.76-29.59,62.9-59.62,62.9C339.35,679,309.85,659.81,309.85,616.05Zm59.93,48.17c25.9,0,43.08-18.44,43.08-48.16,0-29.41-17.39-47.85-43.39-47.85s-43.08,18.23-43.08,47.85c0,29.93,17.08,48.16,43.39,48.16Z" transform="translate(-0.33)"/><path class="cls-3" d="M511.35,553.89c34,0,50.15,19.82,50.15,57.9v57.13c0,4.68-2.61,7.29-7.3,7.29h-1.93c-4.69,0-7.3-2.61-7.3-7.29V612.8c0-29.7-11.66-44.06-37.56-44.06-26.23,0-37.14,17.47-37.14,47.67v52.51c0,4.68-2.62,7.29-7.3,7.29H461c-4.68,0-7.29-2.61-7.29-7.29V563.19c0-4.68,2.61-7.3,7.29-7.3H463c4.68,0,7.3,2.62,7.3,7.3v18.56c5.34-15.87,19.26-27.86,41.09-27.86Z" transform="translate(-0.33)"/><path class="cls-3" d="M585.61,529.42c0-5.95,4.43-9.7,10.27-9.7,5.51,0,10.28,3.75,10.28,9.7s-4.77,9.69-10.28,9.69C590,539.11,585.61,535.27,585.61,529.42Zm1.94,139.5V563.2c0-4.69,2.55-7.3,7.13-7.3h2c4.58,0,7.13,2.61,7.13,7.3V668.92c0,4.68-2.55,7.3-7.13,7.3h-2C590.1,676.22,587.55,673.6,587.55,668.92Z" transform="translate(-0.33)"/><path class="cls-3" d="M682.4,677.81c-29.56,0-42.19-13.51-42.19-50.52v-58H629.46c-4.68,0-7.29-2.27-7.29-6.77s2.27-6.66,6.39-6.66h11.65V540c0-4.36,2-7,6.42-7.85l2.17-.43c5-1.09,8.06,1.21,8.06,6.33V555.9h30.39c4.81,0,7.3,2.31,7.3,6.66s-2.62,6.77-7.3,6.77H656.86v57.14c0,34.85,13.58,37.54,30.18,37.38,4.58,0,7.53,1.57,8,5.68.59,4.7-1.3,7.37-6.59,8a51.51,51.51,0,0,1-6.1.3Z" transform="translate(-0.33)"/><path class="cls-3" d="M709.92,616.05c0-43.33,29.5-62.47,59.63-62.47s59.92,19.14,59.92,62.47c0,43.76-29.59,62.9-59.62,62.9C739.42,679,709.92,659.81,709.92,616.05Zm59.93,48.17c25.9,0,43.08-18.44,43.08-48.16,0-29.41-17.39-47.85-43.39-47.85s-43.08,18.23-43.08,47.85c0,29.93,17.08,48.16,43.39,48.16Z" transform="translate(-0.33)"/><path class="cls-3" d="M906.34,554.92c4.92.12,7.32,3.36,6.67,8l-.21,1.48c-.53,4.59-3.35,6.47-8.15,6.34-24.26-1.52-34.31,15.5-34.31,43.28v54.86c0,4.68-2.62,7.29-7.3,7.29H861.1c-4.68,0-7.29-2.61-7.29-7.29V563.2c0-4.69,2.61-7.3,7.29-7.3H863c4.68,0,7.3,2.5,7.3,7.07v15c4.32-12.64,15-24.33,36-23Z" transform="translate(-0.33)"/><path class="cls-3" d="M148.3,526.59h3.76c4.25,0,7,1.95,8.17,6.11l37.24,121.39L234.91,532.7c1.2-4,3.93-6.11,8.17-6.11h3.77c4.15,0,7.07,1.86,8.38,6L303,670.39c1.75,4.91-.76,8.29-6,8.29H294c-4.16,0-7-1.86-8.27-6L244.45,551,206.79,672.57c-1.2,4-3.92,6.11-8.17,6.11h-2.29c-4.25,0-7-2-8.18-6.11L150.71,551,109.65,672.68c-1.31,4.14-4.12,6-8.27,6H98.31c-5.23,0-7.73-3.38-6-8.29l47.6-137.81c1.31-4,4.23-6,8.38-6Z" transform="translate(-0.33)"/></svg>